<mxfile host="app.diagrams.net" modified="2023-11-22T21:14:37.915Z" agent="Mozilla/5.0 (Windows NT 10.0; Win64; x64) AppleWebKit/537.36 (KHTML, like Gecko) Chrome/118.0.0.0 Safari/537.36 OPR/104.0.0.0" etag="CKLrMD54rzjwTAVwZ9fP" version="22.1.3" type="device">
  <diagram id="6a731a19-8d31-9384-78a2-239565b7b9f0" name="Page-1">
    <mxGraphModel dx="1199" dy="-178" grid="1" gridSize="10" guides="1" tooltips="1" connect="1" arrows="1" fold="1" page="1" pageScale="1" pageWidth="1169" pageHeight="827" background="none" math="0" shadow="0">
      <root>
        <mxCell id="0" />
        <mxCell id="1" parent="0" />
        <mxCell id="56" value="Seen Engine&lt;br&gt;" style="strokeColor=#BAC8D3;fillColor=#23445D;fontSize=24;strokeWidth=2;fontFamily=Helvetica;html=1;fontColor=#FFFFFF;fontStyle=0;spacingBottom=8;spacingRight=0;spacingLeft=83;" parent="1" vertex="1">
          <mxGeometry x="160" y="851" width="2030" height="79.5" as="geometry" />
        </mxCell>
        <mxCell id="57" value="Presentation Layer&lt;br&gt;/Web Socket" style="strokeColor=#BAC8D3;fillColor=#23445D;fontSize=24;strokeWidth=2;horizontal=0;fontFamily=Helvetica;html=1;fontColor=#FFFFFF;fontStyle=0" parent="1" vertex="1">
          <mxGeometry x="154" y="930.5" width="96" height="300" as="geometry" />
        </mxCell>
        <mxCell id="59" value="v 1.0&lt;br&gt;Beta" style="strokeColor=#BAC8D3;fillColor=#5d7f99;fontSize=19;strokeWidth=2;fontFamily=Helvetica;html=1;labelBackgroundColor=none;fontColor=#FFFFFF;" parent="1" vertex="1">
          <mxGeometry x="154" y="850.5" width="90" height="80" as="geometry" />
        </mxCell>
        <mxCell id="64" value="Business Layer" style="strokeColor=#BAC8D3;fillColor=#23445D;fontSize=24;strokeWidth=2;horizontal=0;fontFamily=Helvetica;html=1;fontColor=#FFFFFF;fontStyle=0" parent="1" vertex="1">
          <mxGeometry x="154" y="1230.5" width="96" height="200" as="geometry" />
        </mxCell>
        <mxCell id="67" value="Data Layer" style="strokeColor=#BAC8D3;fillColor=#23445D;fontSize=24;strokeWidth=2;horizontal=0;fontFamily=Helvetica;html=1;fontColor=#FFFFFF;fontStyle=0" parent="1" vertex="1">
          <mxGeometry x="154" y="1430.5" width="96" height="200" as="geometry" />
        </mxCell>
        <mxCell id="68" value="" style="strokeColor=#6c8ebf;fillColor=#dae8fc;fontSize=18;strokeWidth=2;fontFamily=Helvetica;html=1;opacity=60;gradientColor=#7ea6e0;" parent="1" vertex="1">
          <mxGeometry x="244" y="930.5" width="646.6666666666666" height="100" as="geometry" />
        </mxCell>
        <mxCell id="69" value="" style="fillColor=#b1ddf0;fontSize=18;strokeWidth=2;fontFamily=Helvetica;html=1;opacity=90;strokeColor=#10739e;" parent="1" vertex="1">
          <mxGeometry x="250" y="1030.4" width="646.6666666666666" height="100" as="geometry" />
        </mxCell>
        <mxCell id="70" value="" style="strokeColor=#6c8ebf;fillColor=#dae8fc;fontSize=18;strokeWidth=2;fontFamily=Helvetica;html=1;opacity=60;gradientColor=#7ea6e0;" parent="1" vertex="1">
          <mxGeometry x="244" y="1130.5" width="646.6666666666666" height="100" as="geometry" />
        </mxCell>
        <mxCell id="71" value="" style="fillColor=#dae8fc;fontSize=18;strokeWidth=2;fontFamily=Helvetica;html=1;opacity=90;gradientColor=#7ea6e0;strokeColor=#6c8ebf;" parent="1" vertex="1">
          <mxGeometry x="244" y="1230.5" width="646.6666666666666" height="100" as="geometry" />
        </mxCell>
        <mxCell id="72" value="" style="strokeColor=#6c8ebf;fillColor=#dae8fc;fontSize=18;strokeWidth=2;fontFamily=Helvetica;html=1;opacity=60;gradientColor=#7ea6e0;" parent="1" vertex="1">
          <mxGeometry x="244" y="1330.5" width="646.6666666666666" height="100" as="geometry" />
        </mxCell>
        <mxCell id="73" value="" style="fillColor=#dae8fc;fontSize=18;strokeWidth=2;fontFamily=Helvetica;html=1;opacity=90;gradientColor=#7ea6e0;strokeColor=#6c8ebf;" parent="1" vertex="1">
          <mxGeometry x="244" y="1430.5" width="646.6666666666666" height="100" as="geometry" />
        </mxCell>
        <mxCell id="74" value="" style="strokeColor=#6c8ebf;fillColor=#dae8fc;fontSize=18;strokeWidth=2;fontFamily=Helvetica;html=1;opacity=60;gradientColor=#7ea6e0;" parent="1" vertex="1">
          <mxGeometry x="244" y="1530.5" width="646.6666666666666" height="100" as="geometry" />
        </mxCell>
        <mxCell id="75" value="" style="strokeColor=#6c8ebf;fillColor=#dae8fc;fontSize=18;strokeWidth=2;fontFamily=Helvetica;html=1;opacity=60;gradientColor=#7ea6e0;" parent="1" vertex="1">
          <mxGeometry x="890.6666666666666" y="930.5" width="647" height="100" as="geometry" />
        </mxCell>
        <mxCell id="76" value="" style="fillColor=#dae8fc;fontSize=18;strokeWidth=2;fontFamily=Helvetica;html=1;opacity=90;gradientColor=#7ea6e0;strokeColor=#6c8ebf;" parent="1" vertex="1">
          <mxGeometry x="890.6666666666666" y="1030.5" width="646.6666666666666" height="100" as="geometry" />
        </mxCell>
        <mxCell id="77" value="" style="strokeColor=#6c8ebf;fillColor=#dae8fc;fontSize=18;strokeWidth=2;fontFamily=Helvetica;html=1;opacity=60;gradientColor=#7ea6e0;" parent="1" vertex="1">
          <mxGeometry x="890.6666666666666" y="1130.5" width="646.6666666666666" height="100" as="geometry" />
        </mxCell>
        <mxCell id="78" value="" style="fillColor=#dae8fc;fontSize=18;strokeWidth=2;fontFamily=Helvetica;html=1;opacity=90;gradientColor=#7ea6e0;strokeColor=#6c8ebf;" parent="1" vertex="1">
          <mxGeometry x="890.6666666666666" y="1230.5" width="646.6666666666666" height="100" as="geometry" />
        </mxCell>
        <mxCell id="79" value="" style="strokeColor=#6c8ebf;fillColor=#dae8fc;fontSize=18;strokeWidth=2;fontFamily=Helvetica;html=1;opacity=60;gradientColor=#7ea6e0;" parent="1" vertex="1">
          <mxGeometry x="890.6666666666666" y="1330.5" width="646.6666666666666" height="100" as="geometry" />
        </mxCell>
        <mxCell id="80" value="" style="fillColor=#dae8fc;fontSize=18;strokeWidth=2;fontFamily=Helvetica;html=1;opacity=90;gradientColor=#7ea6e0;strokeColor=#6c8ebf;" parent="1" vertex="1">
          <mxGeometry x="890.6666666666666" y="1430.5" width="646.6666666666666" height="100" as="geometry" />
        </mxCell>
        <mxCell id="81" value="" style="strokeColor=#6c8ebf;fillColor=#dae8fc;fontSize=18;strokeWidth=2;fontFamily=Helvetica;html=1;opacity=60;fontStyle=4;gradientColor=#7ea6e0;" parent="1" vertex="1">
          <mxGeometry x="890.6666666666666" y="1530.5" width="646.6666666666666" height="100" as="geometry" />
        </mxCell>
        <mxCell id="82" value="" style="strokeColor=#6c8ebf;fillColor=#dae8fc;fontSize=18;strokeWidth=2;fontFamily=Helvetica;html=1;opacity=60;gradientColor=#7ea6e0;" parent="1" vertex="1">
          <mxGeometry x="1537.33" y="930.5" width="652.67" height="100" as="geometry" />
        </mxCell>
        <mxCell id="83" value="" style="fillColor=#dae8fc;fontSize=18;strokeWidth=2;fontFamily=Helvetica;html=1;opacity=90;gradientColor=#7ea6e0;strokeColor=#6c8ebf;" parent="1" vertex="1">
          <mxGeometry x="1537.33" y="1030.5" width="652.67" height="100" as="geometry" />
        </mxCell>
        <mxCell id="84" value="" style="strokeColor=#6c8ebf;fillColor=#dae8fc;fontSize=18;strokeWidth=2;fontFamily=Helvetica;html=1;opacity=60;gradientColor=#7ea6e0;" parent="1" vertex="1">
          <mxGeometry x="1537.33" y="1130.5" width="652.67" height="100" as="geometry" />
        </mxCell>
        <mxCell id="85" value="" style="fillColor=#dae8fc;fontSize=18;strokeWidth=2;fontFamily=Helvetica;html=1;opacity=90;gradientColor=#7ea6e0;strokeColor=#6c8ebf;" parent="1" vertex="1">
          <mxGeometry x="1537.33" y="1230.5" width="652.67" height="100" as="geometry" />
        </mxCell>
        <mxCell id="86" value="" style="strokeColor=#6c8ebf;fillColor=#dae8fc;fontSize=18;strokeWidth=2;fontFamily=Helvetica;html=1;opacity=60;gradientColor=#7ea6e0;" parent="1" vertex="1">
          <mxGeometry x="1537.33" y="1330.5" width="652.67" height="100" as="geometry" />
        </mxCell>
        <mxCell id="87" value="" style="fillColor=#dae8fc;fontSize=18;strokeWidth=2;fontFamily=Helvetica;html=1;opacity=90;gradientColor=#7ea6e0;strokeColor=#6c8ebf;" parent="1" vertex="1">
          <mxGeometry x="1537.33" y="1430.5" width="652.67" height="100" as="geometry" />
        </mxCell>
        <mxCell id="88" value="" style="strokeColor=#6c8ebf;fillColor=#dae8fc;fontSize=18;strokeWidth=2;fontFamily=Helvetica;html=1;opacity=60;fontStyle=4;gradientColor=#7ea6e0;" parent="1" vertex="1">
          <mxGeometry x="1537.33" y="1530.5" width="652.67" height="100" as="geometry" />
        </mxCell>
        <mxCell id="Qx-xKCjAaK7sPluYtuYU-154" style="edgeStyle=orthogonalEdgeStyle;rounded=0;orthogonalLoop=1;jettySize=auto;html=1;entryX=0.5;entryY=1;entryDx=0;entryDy=0;strokeWidth=2;" edge="1" parent="1" source="90" target="Qx-xKCjAaK7sPluYtuYU-150">
          <mxGeometry relative="1" as="geometry" />
        </mxCell>
        <mxCell id="90" value="Seen Engine" style="rounded=1;fillColor=#e1d5e7;strokeColor=#9673a6;strokeWidth=2;fontFamily=Helvetica;html=1;" parent="1" vertex="1">
          <mxGeometry x="270.39" y="1247.75" width="159.61" height="65.5" as="geometry" />
        </mxCell>
        <mxCell id="Qx-xKCjAaK7sPluYtuYU-185" style="edgeStyle=orthogonalEdgeStyle;rounded=0;orthogonalLoop=1;jettySize=auto;html=1;entryX=0.5;entryY=1;entryDx=0;entryDy=0;strokeWidth=2;" edge="1" parent="1" source="91" target="93">
          <mxGeometry relative="1" as="geometry">
            <Array as="points">
              <mxPoint x="724" y="1500" />
            </Array>
          </mxGeometry>
        </mxCell>
        <mxCell id="91" value="DATABASE" style="rounded=1;fillColor=#f5f5f5;strokeColor=#666666;strokeWidth=2;fontFamily=Helvetica;html=1;gradientColor=#b3b3b3;" parent="1" vertex="1">
          <mxGeometry x="920.004761904762" y="1455.5" width="127" height="50" as="geometry" />
        </mxCell>
        <mxCell id="Qx-xKCjAaK7sPluYtuYU-155" style="edgeStyle=orthogonalEdgeStyle;rounded=0;orthogonalLoop=1;jettySize=auto;html=1;entryX=1;entryY=0.5;entryDx=0;entryDy=0;strokeWidth=2;" edge="1" parent="1" source="93" target="Qx-xKCjAaK7sPluYtuYU-151">
          <mxGeometry relative="1" as="geometry" />
        </mxCell>
        <mxCell id="93" value="MicroServiceHandler" style="rounded=1;strokeWidth=2;fontFamily=Helvetica;html=1;" parent="1" vertex="1">
          <mxGeometry x="620.004761904762" y="1355.5" width="127" height="50" as="geometry" />
        </mxCell>
        <mxCell id="Qx-xKCjAaK7sPluYtuYU-166" style="edgeStyle=orthogonalEdgeStyle;rounded=0;orthogonalLoop=1;jettySize=auto;html=1;entryX=1;entryY=0.5;entryDx=0;entryDy=0;strokeWidth=2;" edge="1" parent="1" source="97" target="90">
          <mxGeometry relative="1" as="geometry" />
        </mxCell>
        <mxCell id="Qx-xKCjAaK7sPluYtuYU-179" style="edgeStyle=orthogonalEdgeStyle;rounded=0;orthogonalLoop=1;jettySize=auto;html=1;entryX=0;entryY=0.5;entryDx=0;entryDy=0;strokeWidth=2;fillColor=#f8cecc;gradientColor=#ea6b66;strokeColor=#b85450;" edge="1" parent="1" source="97" target="102">
          <mxGeometry relative="1" as="geometry" />
        </mxCell>
        <mxCell id="Qx-xKCjAaK7sPluYtuYU-180" style="edgeStyle=orthogonalEdgeStyle;rounded=0;orthogonalLoop=1;jettySize=auto;html=1;entryX=0;entryY=0.5;entryDx=0;entryDy=0;fillColor=#f8cecc;gradientColor=#ea6b66;strokeColor=#b85450;" edge="1" parent="1" source="97" target="91">
          <mxGeometry relative="1" as="geometry" />
        </mxCell>
        <mxCell id="97" value="AuditLogger" style="rounded=1;fillColor=#f5f5f5;strokeColor=#666666;strokeWidth=2;fontFamily=Helvetica;html=1;gradientColor=#b3b3b3;" parent="1" vertex="1">
          <mxGeometry x="620.0049659863945" y="1255.5" width="127" height="50" as="geometry" />
        </mxCell>
        <mxCell id="Qx-xKCjAaK7sPluYtuYU-163" style="edgeStyle=orthogonalEdgeStyle;rounded=0;orthogonalLoop=1;jettySize=auto;html=1;entryX=0.5;entryY=0;entryDx=0;entryDy=0;strokeWidth=3;exitX=0.5;exitY=0;exitDx=0;exitDy=0;" edge="1" parent="1" source="91" target="91">
          <mxGeometry relative="1" as="geometry" />
        </mxCell>
        <mxCell id="Qx-xKCjAaK7sPluYtuYU-174" style="edgeStyle=orthogonalEdgeStyle;rounded=0;orthogonalLoop=1;jettySize=auto;html=1;entryX=1;entryY=0.5;entryDx=0;entryDy=0;strokeWidth=3;" edge="1" parent="1" source="98" target="91">
          <mxGeometry relative="1" as="geometry">
            <Array as="points">
              <mxPoint x="1120" y="1581" />
              <mxPoint x="1120" y="1481" />
            </Array>
          </mxGeometry>
        </mxCell>
        <mxCell id="100" value="MongoDB" style="rounded=1;fillColor=#d5e8d4;strokeColor=#82b366;strokeWidth=2;fontFamily=Helvetica;html=1;" parent="1" vertex="1">
          <mxGeometry x="1990.0049659863944" y="1450" width="127" height="50" as="geometry" />
        </mxCell>
        <mxCell id="Qx-xKCjAaK7sPluYtuYU-187" style="edgeStyle=orthogonalEdgeStyle;rounded=0;orthogonalLoop=1;jettySize=auto;html=1;entryX=1;entryY=0.5;entryDx=0;entryDy=0;strokeWidth=2;" edge="1" parent="1" source="102" target="93">
          <mxGeometry relative="1" as="geometry">
            <Array as="points">
              <mxPoint x="820" y="1360" />
              <mxPoint x="820" y="1380" />
            </Array>
          </mxGeometry>
        </mxCell>
        <mxCell id="102" value="SHARD&lt;br&gt;ENGINE" style="rounded=1;fillColor=#f5f5f5;strokeColor=#666666;strokeWidth=2;fontFamily=Helvetica;html=1;gradientColor=#b3b3b3;" parent="1" vertex="1">
          <mxGeometry x="920.0085034013605" y="1355.5" width="127" height="50" as="geometry" />
        </mxCell>
        <mxCell id="Qx-xKCjAaK7sPluYtuYU-229" style="edgeStyle=orthogonalEdgeStyle;rounded=0;orthogonalLoop=1;jettySize=auto;html=1;entryX=0.5;entryY=1;entryDx=0;entryDy=0;strokeWidth=2;" edge="1" parent="1" source="103" target="Qx-xKCjAaK7sPluYtuYU-226">
          <mxGeometry relative="1" as="geometry" />
        </mxCell>
        <mxCell id="103" value="ISHARD" style="rounded=1;strokeWidth=2;fontFamily=Helvetica;html=1;" parent="1" vertex="1">
          <mxGeometry x="1183.0049659863944" y="1455.5" width="127" height="50" as="geometry" />
        </mxCell>
        <mxCell id="105" value="Postgres" style="rounded=1;fillColor=#d5e8d4;strokeColor=#82b366;strokeWidth=2;fontFamily=Helvetica;html=1;" parent="1" vertex="1">
          <mxGeometry x="1990.0014285714287" y="1505.5" width="127" height="50" as="geometry" />
        </mxCell>
        <mxCell id="Qx-xKCjAaK7sPluYtuYU-207" style="edgeStyle=orthogonalEdgeStyle;rounded=0;orthogonalLoop=1;jettySize=auto;html=1;entryX=1;entryY=0.5;entryDx=0;entryDy=0;" edge="1" parent="1" source="108" target="98">
          <mxGeometry relative="1" as="geometry" />
        </mxCell>
        <mxCell id="108" value="SeenConnection" style="rounded=1;strokeWidth=2;fontFamily=Helvetica;html=1;fillColor=#f9f7ed;strokeColor=#36393d;" parent="1" vertex="1">
          <mxGeometry x="1599.9978911564624" y="1505.5" width="127" height="50" as="geometry" />
        </mxCell>
        <mxCell id="110" value="" style="rounded=1;fillColor=#23445D;strokeColor=none;strokeWidth=2;gradientColor=none;fontFamily=Helvetica;html=1;" parent="1" vertex="1">
          <mxGeometry x="1310.0016326530613" y="1654" width="127" height="50" as="geometry" />
        </mxCell>
        <mxCell id="Qx-xKCjAaK7sPluYtuYU-224" style="edgeStyle=orthogonalEdgeStyle;rounded=0;orthogonalLoop=1;jettySize=auto;html=1;entryX=0.5;entryY=0;entryDx=0;entryDy=0;" edge="1" parent="1" source="111" target="101">
          <mxGeometry relative="1" as="geometry">
            <Array as="points">
              <mxPoint x="2140" y="1585" />
              <mxPoint x="2140" y="1420" />
              <mxPoint x="1860" y="1420" />
            </Array>
          </mxGeometry>
        </mxCell>
        <mxCell id="111" value="MySQL DB" style="rounded=1;fillColor=#d5e8d4;strokeColor=#82b366;strokeWidth=2;fontFamily=Helvetica;html=1;" parent="1" vertex="1">
          <mxGeometry x="1990.0016326530613" y="1560" width="127" height="50" as="geometry" />
        </mxCell>
        <mxCell id="Qx-xKCjAaK7sPluYtuYU-150" value="WebSocket" style="rhombus;whiteSpace=wrap;html=1;fillColor=#f5f5f5;strokeColor=#666666;gradientColor=#b3b3b3;" vertex="1" parent="1">
          <mxGeometry x="310.19" y="940.5" width="80" height="80" as="geometry" />
        </mxCell>
        <mxCell id="Qx-xKCjAaK7sPluYtuYU-152" style="edgeStyle=orthogonalEdgeStyle;rounded=0;orthogonalLoop=1;jettySize=auto;html=1;entryX=0.5;entryY=1;entryDx=0;entryDy=0;strokeWidth=2;" edge="1" parent="1" source="Qx-xKCjAaK7sPluYtuYU-151" target="90">
          <mxGeometry relative="1" as="geometry" />
        </mxCell>
        <mxCell id="Qx-xKCjAaK7sPluYtuYU-151" value="StreamEngine" style="rhombus;whiteSpace=wrap;html=1;fillColor=#f5f5f5;gradientColor=#b3b3b3;strokeColor=#666666;" vertex="1" parent="1">
          <mxGeometry x="490" y="1340.5" width="90" height="80" as="geometry" />
        </mxCell>
        <mxCell id="Qx-xKCjAaK7sPluYtuYU-208" style="edgeStyle=orthogonalEdgeStyle;rounded=0;orthogonalLoop=1;jettySize=auto;html=1;entryX=0.5;entryY=1;entryDx=0;entryDy=0;" edge="1" parent="1" source="98" target="Qx-xKCjAaK7sPluYtuYU-190">
          <mxGeometry relative="1" as="geometry" />
        </mxCell>
        <mxCell id="98" value="DBManager" style="rounded=1;fillColor=#f9f7ed;strokeColor=#36393d;strokeWidth=2;fontFamily=Helvetica;html=1;" parent="1" vertex="1">
          <mxGeometry x="1346.5014285714285" y="1555.5" width="127" height="50" as="geometry" />
        </mxCell>
        <mxCell id="Qx-xKCjAaK7sPluYtuYU-183" style="edgeStyle=orthogonalEdgeStyle;rounded=0;orthogonalLoop=1;jettySize=auto;html=1;entryX=1;entryY=0.5;entryDx=0;entryDy=0;strokeWidth=3;exitX=0;exitY=0.5;exitDx=0;exitDy=0;" edge="1" parent="1" source="Qx-xKCjAaK7sPluYtuYU-182">
          <mxGeometry relative="1" as="geometry">
            <mxPoint x="926.0116326530615" y="980.4999999999999" as="sourcePoint" />
            <mxPoint x="753.0047619047618" y="1380.4" as="targetPoint" />
            <Array as="points">
              <mxPoint x="910" y="1300" />
              <mxPoint x="836" y="1300" />
              <mxPoint x="836" y="1380" />
            </Array>
          </mxGeometry>
        </mxCell>
        <mxCell id="Qx-xKCjAaK7sPluYtuYU-182" value="StreamManager" style="rounded=1;fillColor=#f5f5f5;strokeColor=#666666;strokeWidth=2;gradientColor=#b3b3b3;fontFamily=Helvetica;html=1;" vertex="1" parent="1">
          <mxGeometry x="910.0016326530613" y="1255.5" width="127" height="50" as="geometry" />
        </mxCell>
        <mxCell id="Qx-xKCjAaK7sPluYtuYU-191" value="" style="edgeStyle=orthogonalEdgeStyle;rounded=0;orthogonalLoop=1;jettySize=auto;html=1;entryX=1;entryY=0.5;entryDx=0;entryDy=0;strokeWidth=2;fillColor=#f8cecc;gradientColor=#ea6b66;strokeColor=#b85450;" edge="1" parent="1" source="108" target="Qx-xKCjAaK7sPluYtuYU-190">
          <mxGeometry relative="1" as="geometry">
            <mxPoint x="1600" y="1531" as="sourcePoint" />
            <mxPoint x="1310" y="1581" as="targetPoint" />
          </mxGeometry>
        </mxCell>
        <mxCell id="Qx-xKCjAaK7sPluYtuYU-200" style="edgeStyle=orthogonalEdgeStyle;rounded=0;orthogonalLoop=1;jettySize=auto;html=1;entryX=1;entryY=0.5;entryDx=0;entryDy=0;strokeWidth=2;" edge="1" parent="1" source="Qx-xKCjAaK7sPluYtuYU-190" target="103">
          <mxGeometry relative="1" as="geometry" />
        </mxCell>
        <mxCell id="Qx-xKCjAaK7sPluYtuYU-190" value="Data &lt;br&gt;Control" style="rhombus;whiteSpace=wrap;html=1;" vertex="1" parent="1">
          <mxGeometry x="1370" y="1415.25" width="80" height="80" as="geometry" />
        </mxCell>
        <mxCell id="Qx-xKCjAaK7sPluYtuYU-219" style="edgeStyle=orthogonalEdgeStyle;rounded=0;orthogonalLoop=1;jettySize=auto;html=1;entryX=1;entryY=0.5;entryDx=0;entryDy=0;" edge="1" parent="1" source="101" target="100">
          <mxGeometry relative="1" as="geometry" />
        </mxCell>
        <mxCell id="Qx-xKCjAaK7sPluYtuYU-220" style="edgeStyle=orthogonalEdgeStyle;rounded=0;orthogonalLoop=1;jettySize=auto;html=1;entryX=1;entryY=0.5;entryDx=0;entryDy=0;" edge="1" parent="1" source="101" target="105">
          <mxGeometry relative="1" as="geometry">
            <Array as="points">
              <mxPoint x="1860" y="1430" />
              <mxPoint x="2137" y="1430" />
              <mxPoint x="2137" y="1531" />
            </Array>
          </mxGeometry>
        </mxCell>
        <mxCell id="Qx-xKCjAaK7sPluYtuYU-221" style="edgeStyle=orthogonalEdgeStyle;rounded=0;orthogonalLoop=1;jettySize=auto;html=1;entryX=1;entryY=0.5;entryDx=0;entryDy=0;" edge="1" parent="1" source="101" target="111">
          <mxGeometry relative="1" as="geometry">
            <Array as="points">
              <mxPoint x="1860" y="1430" />
              <mxPoint x="2137" y="1430" />
              <mxPoint x="2137" y="1585" />
            </Array>
          </mxGeometry>
        </mxCell>
        <mxCell id="Qx-xKCjAaK7sPluYtuYU-225" style="edgeStyle=orthogonalEdgeStyle;rounded=0;orthogonalLoop=1;jettySize=auto;html=1;entryX=1;entryY=0.5;entryDx=0;entryDy=0;" edge="1" parent="1" source="101" target="108">
          <mxGeometry relative="1" as="geometry" />
        </mxCell>
        <mxCell id="101" value="IDATA&lt;br&gt;Entity" style="rounded=1;fillColor=#f5f5f5;strokeColor=#666666;strokeWidth=2;fontFamily=Helvetica;html=1;gradientColor=#b3b3b3;" parent="1" vertex="1">
          <mxGeometry x="1796.5" y="1440" width="127" height="49.5" as="geometry" />
        </mxCell>
        <mxCell id="Qx-xKCjAaK7sPluYtuYU-210" style="edgeStyle=orthogonalEdgeStyle;rounded=0;orthogonalLoop=1;jettySize=auto;html=1;entryX=1;entryY=0.5;entryDx=0;entryDy=0;" edge="1" parent="1" source="Qx-xKCjAaK7sPluYtuYU-209" target="Qx-xKCjAaK7sPluYtuYU-182">
          <mxGeometry relative="1" as="geometry" />
        </mxCell>
        <mxCell id="Qx-xKCjAaK7sPluYtuYU-209" value="StreamHandle" style="rounded=0;whiteSpace=wrap;html=1;" vertex="1" parent="1">
          <mxGeometry x="1066.5" y="1250.5" width="120" height="60" as="geometry" />
        </mxCell>
        <mxCell id="Qx-xKCjAaK7sPluYtuYU-215" style="edgeStyle=orthogonalEdgeStyle;rounded=0;orthogonalLoop=1;jettySize=auto;html=1;entryX=0;entryY=0.5;entryDx=0;entryDy=0;" edge="1" parent="1" source="Qx-xKCjAaK7sPluYtuYU-211" target="105">
          <mxGeometry relative="1" as="geometry" />
        </mxCell>
        <mxCell id="Qx-xKCjAaK7sPluYtuYU-216" style="edgeStyle=orthogonalEdgeStyle;rounded=0;orthogonalLoop=1;jettySize=auto;html=1;entryX=0;entryY=0.5;entryDx=0;entryDy=0;" edge="1" parent="1" source="Qx-xKCjAaK7sPluYtuYU-211" target="100">
          <mxGeometry relative="1" as="geometry" />
        </mxCell>
        <mxCell id="Qx-xKCjAaK7sPluYtuYU-217" style="edgeStyle=orthogonalEdgeStyle;rounded=0;orthogonalLoop=1;jettySize=auto;html=1;entryX=0;entryY=0.5;entryDx=0;entryDy=0;" edge="1" parent="1" source="Qx-xKCjAaK7sPluYtuYU-211" target="111">
          <mxGeometry relative="1" as="geometry" />
        </mxCell>
        <mxCell id="Qx-xKCjAaK7sPluYtuYU-218" style="edgeStyle=orthogonalEdgeStyle;rounded=0;orthogonalLoop=1;jettySize=auto;html=1;entryX=1;entryY=0.5;entryDx=0;entryDy=0;" edge="1" parent="1" source="Qx-xKCjAaK7sPluYtuYU-211" target="108">
          <mxGeometry relative="1" as="geometry" />
        </mxCell>
        <mxCell id="Qx-xKCjAaK7sPluYtuYU-211" value="IDATABASE" style="rounded=0;whiteSpace=wrap;html=1;fillColor=#f5f5f5;gradientColor=#b3b3b3;strokeColor=#666666;direction=west;" vertex="1" parent="1">
          <mxGeometry x="1800" y="1500.5" width="120" height="60" as="geometry" />
        </mxCell>
        <mxCell id="Qx-xKCjAaK7sPluYtuYU-230" style="edgeStyle=orthogonalEdgeStyle;rounded=0;orthogonalLoop=1;jettySize=auto;html=1;entryX=1;entryY=0.5;entryDx=0;entryDy=0;strokeWidth=2;" edge="1" parent="1" source="Qx-xKCjAaK7sPluYtuYU-226" target="102">
          <mxGeometry relative="1" as="geometry" />
        </mxCell>
        <mxCell id="Qx-xKCjAaK7sPluYtuYU-226" value="SHARD&lt;br&gt;CONTROLLER" style="rounded=0;whiteSpace=wrap;html=1;" vertex="1" parent="1">
          <mxGeometry x="1186.5" y="1350.5" width="120" height="60" as="geometry" />
        </mxCell>
      </root>
    </mxGraphModel>
  </diagram>
</mxfile>
